<?xml version="1.0" encoding="UTF-8" standalone="no"?>
<!DOCTYPE svg PUBLIC "-//W3C//DTD SVG 1.1//EN" "http://www.w3.org/Graphics/SVG/1.1/DTD/svg11.dtd">
<svg width="100%" height="100%" viewBox="0 0 128 128" version="1.1" xmlns="http://www.w3.org/2000/svg" xmlns:xlink="http://www.w3.org/1999/xlink" xml:space="preserve" xmlns:serif="http://www.serif.com/" style="fill-rule:evenodd;clip-rule:evenodd;stroke-linejoin:round;stroke-miterlimit:2;">
    <g transform="matrix(1.29514,0,0,1.29514,-18.8893,-18.8892)">
        <g>
            <path d="M18.233,81.666L18.217,81.669C18.223,81.681 18.227,81.691 18.233,81.705C18.241,81.806 18.259,81.9 18.273,81.998C18.275,82.015 18.273,82.027 18.275,82.043L22.204,107.557C22.68,110.655 25.578,112.778 28.674,112.3C31.772,111.824 33.896,108.928 33.42,105.829L32.809,101.864C33.521,102.451 34.239,103.033 34.984,103.578C45.09,110.998 58.095,114.565 71.47,112.504C84.842,110.448 96.172,103.134 103.579,93.017C107.241,88.029 109.932,82.322 111.501,76.224L96.022,71.962C94.978,76.153 93.14,80.071 90.617,83.514C85.605,90.338 78.051,95.227 69.024,96.619C59.997,98.007 51.319,95.617 44.488,90.615C43.647,89.999 42.843,89.333 42.064,88.639L46.552,89.074C49.424,89.35 51.997,87.049 52.3,83.93C52.6,80.81 50.517,78.057 47.645,77.78L23.986,75.489C21.418,75.241 19.102,77.061 18.422,79.677C18.372,79.862 18.346,80.051 18.313,80.242C18.292,80.374 18.252,80.497 18.239,80.632C18.235,80.673 18.241,80.709 18.238,80.746C18.225,80.92 18.234,81.097 18.236,81.274C18.235,81.406 18.224,81.539 18.233,81.666Z" style="fill:rgb(85,98,113);fill-rule:nonzero;"/>
            <path d="M109.767,46.334L109.782,46.332C109.776,46.319 109.772,46.308 109.766,46.295C109.758,46.195 109.739,46.1 109.726,46.002C109.724,45.987 109.726,45.973 109.724,45.958L105.796,20.445C105.319,17.348 102.423,15.224 99.324,15.701C96.227,16.178 94.103,19.074 94.58,22.171L95.192,26.138C94.477,25.551 93.759,24.969 93.015,24.423C82.909,17.004 69.903,13.434 56.531,15.497C43.157,17.552 31.828,24.868 24.422,34.984C20.758,39.973 18.067,45.68 16.5,51.778L31.979,56.038C33.021,51.848 34.861,47.93 37.382,44.487C42.394,37.663 49.951,32.775 58.977,31.382C68.004,29.996 76.68,32.384 83.513,37.384C84.354,38.002 85.158,38.668 85.936,39.36L81.449,38.926C78.577,38.648 76.004,40.952 75.702,44.07C75.399,47.189 77.484,49.943 80.355,50.22L104.014,52.511C106.582,52.759 108.898,50.939 109.578,48.323C109.628,48.139 109.654,47.949 109.685,47.758C109.707,47.626 109.748,47.503 109.76,47.367C109.766,47.329 109.757,47.292 109.76,47.255C109.774,47.08 109.767,46.902 109.763,46.725C109.764,46.595 109.774,46.462 109.767,46.334Z" style="fill:rgb(85,98,113);fill-rule:nonzero;"/>
        </g>
    </g>
</svg>
