<?xml version="1.0" standalone="no"?>
<!DOCTYPE svg PUBLIC "-//W3C//DTD SVG 20010904//EN"
 "http://www.w3.org/TR/2001/REC-SVG-20010904/DTD/svg10.dtd">
<svg version="1.0" xmlns="http://www.w3.org/2000/svg"
 width="260.000000pt" height="260.000000pt" viewBox="0 0 260.000000 260.000000"
 preserveAspectRatio="xMidYMid meet">
<metadata>
Created by potrace 1.14, written by Peter Selinger 2001-2017
</metadata>
<g transform="translate(0.000000,260.000000) scale(0.100000,-0.100000)"
fill="#000000" stroke="none">
<path d="M0 1300 l0 -1300 1300 0 1300 0 0 1300 0 1300 -1300 0 -1300 0 0
-1300z m1531 857 c83 -27 152 -69 206 -124 90 -92 130 -198 120 -319 -12 -135
-58 -220 -214 -396 -106 -118 -142 -167 -166 -223 -20 -47 -37 -131 -37 -189
0 -69 -26 -86 -127 -86 -101 0 -113 11 -113 109 0 199 34 265 274 528 131 144
170 247 132 348 -66 173 -373 222 -529 85 -41 -35 -78 -109 -97 -188 -16 -70
-35 -82 -129 -82 -89 0 -111 14 -111 69 0 101 64 244 146 326 58 58 184 128
271 150 74 19 307 14 374 -8z m-100 -1494 c10 -11 14 -46 14 -113 0 -131 1
-130 -136 -130 -135 0 -139 4 -139 130 0 126 4 130 139 130 89 0 111 -3 122
-17z"/>
</g>
</svg>
